<mxfile host="app.diagrams.net" modified="2022-10-19T07:33:29.729Z" agent="5.0 (Windows NT 10.0; Win64; x64) AppleWebKit/537.36 (KHTML, like Gecko) Chrome/104.0.0.0 Safari/537.36" etag="AroUFbQ827b-GbI59qBk" version="20.3.0" type="github">
  <diagram id="y-A_ISG4lFizXZdpQtcR" name="第 1 页">
    <mxGraphModel dx="2062" dy="1122" grid="1" gridSize="10" guides="1" tooltips="1" connect="1" arrows="1" fold="1" page="1" pageScale="1" pageWidth="827" pageHeight="1169" math="0" shadow="0">
      <root>
        <mxCell id="0" />
        <mxCell id="1" parent="0" />
        <mxCell id="7luYfJCBtJ_mErZ8za0H-2" value="user a" style="shape=umlActor;verticalLabelPosition=bottom;verticalAlign=top;html=1;outlineConnect=0;" vertex="1" parent="1">
          <mxGeometry x="100" y="560" width="30" height="60" as="geometry" />
        </mxCell>
        <mxCell id="7luYfJCBtJ_mErZ8za0H-11" value="user b" style="shape=umlActor;verticalLabelPosition=bottom;verticalAlign=top;html=1;outlineConnect=0;" vertex="1" parent="1">
          <mxGeometry x="100" y="680" width="30" height="60" as="geometry" />
        </mxCell>
        <mxCell id="7luYfJCBtJ_mErZ8za0H-12" value="user c" style="shape=umlActor;verticalLabelPosition=bottom;verticalAlign=top;html=1;outlineConnect=0;" vertex="1" parent="1">
          <mxGeometry x="100" y="800" width="30" height="60" as="geometry" />
        </mxCell>
        <mxCell id="7luYfJCBtJ_mErZ8za0H-14" value="&lt;font style=&quot;font-size: 16px;&quot;&gt;和平运动会&lt;/font&gt;" style="rounded=1;whiteSpace=wrap;html=1;labelBackgroundColor=none;fontSize=16;fillColor=#fff2cc;strokeColor=#d6b656;" vertex="1" parent="1">
          <mxGeometry x="250" y="560" width="200" height="40" as="geometry" />
        </mxCell>
        <mxCell id="7luYfJCBtJ_mErZ8za0H-16" value="&lt;font face=&quot;Microsoft YaHei&quot; style=&quot;font-size: 16px;&quot;&gt;小红帽与大灰狼&lt;/font&gt;" style="rounded=1;whiteSpace=wrap;html=1;labelBackgroundColor=none;fontSize=16;fillColor=#fff2cc;strokeColor=#d6b656;" vertex="1" parent="1">
          <mxGeometry x="250" y="630" width="200" height="40" as="geometry" />
        </mxCell>
        <mxCell id="7luYfJCBtJ_mErZ8za0H-17" value="&lt;span style=&quot;font-family: &amp;quot;Microsoft YaHei&amp;quot;; font-size: 16px;&quot;&gt;和平速递&lt;/span&gt;" style="rounded=1;whiteSpace=wrap;html=1;labelBackgroundColor=none;fontSize=16;fillColor=#fff2cc;strokeColor=#d6b656;" vertex="1" parent="1">
          <mxGeometry x="250" y="700" width="200" height="40" as="geometry" />
        </mxCell>
        <mxCell id="7luYfJCBtJ_mErZ8za0H-18" value="&lt;span style=&quot;font-family: &amp;quot;Microsoft YaHei&amp;quot;; font-size: 16px;&quot;&gt;欢乐动物园&lt;/span&gt;" style="rounded=1;whiteSpace=wrap;html=1;labelBackgroundColor=none;fontSize=16;fillColor=#fff2cc;strokeColor=#d6b656;" vertex="1" parent="1">
          <mxGeometry x="250" y="770" width="200" height="40" as="geometry" />
        </mxCell>
        <mxCell id="7luYfJCBtJ_mErZ8za0H-19" value="·······" style="rounded=1;whiteSpace=wrap;html=1;fillColor=#fff2cc;strokeColor=#d6b656;fontSize=15;fontColor=#000000;fontStyle=1" vertex="1" parent="1">
          <mxGeometry x="250" y="840" width="200" height="40" as="geometry" />
        </mxCell>
      </root>
    </mxGraphModel>
  </diagram>
</mxfile>
